<?xml version="1.0" encoding="utf-8"?>
<!-- Generator: Adobe Illustrator 16.0.0, SVG Export Plug-In . SVG Version: 6.00 Build 0)  -->
<!DOCTYPE svg PUBLIC "-//W3C//DTD SVG 1.1//EN" "http://www.w3.org/Graphics/SVG/1.1/DTD/svg11.dtd">
<svg version="1.1" id="Layer_1" xmlns="http://www.w3.org/2000/svg" xmlns:xlink="http://www.w3.org/1999/xlink" x="0px" y="0px"
	 width="340px" height="360px" viewBox="0 0 340 360" enable-background="new 0 0 340 360" xml:space="preserve">
<text transform="matrix(1 0 0 1 2.001 -1.3096)" opacity="0" enable-background="new    " font-family="'ArialMT'" font-size="10.4731">a</text>
<path fill="#8BC53F" d="M125.653,92.063c-9.949,8.588-21.007,15.981-32.956,21.984c-12.498-1.867-26.06-8.021-38.366-16.373
	c-1.588-1.083-3.15-2.19-4.695-3.35c-2.688-1.99-5.29-4.085-7.794-6.258c-1.467-1.274-2.897-2.575-4.285-3.893
	c-1.99-1.885-3.902-3.814-5.699-5.778c-1.328-1.431-2.592-2.871-3.805-4.329c-1.85-2.242-3.569-4.502-5.123-6.773
	c-1.118-1.623-2.156-3.255-3.099-4.878c-0.184-0.306-0.358-0.62-0.532-0.934c-0.942-1.466-1.806-2.924-2.601-4.364
	c-1.012-1.841-1.911-3.666-2.705-5.455c-1.021-2.296-1.877-4.547-2.584-6.721c-0.628-1.929-1.143-3.795-1.553-5.594
	c-0.471-1.999-0.812-3.902-1.065-5.699c-0.306-2.208-0.47-4.25-0.523-6.092c-0.21-6.764,0.977-10.761,1.553-10.019
	c1.161-0.532,2.182,2.33,4.127,7.122c0.629,1.562,1.354,3.325,2.208,5.245c0.689,1.527,1.449,3.151,2.321,4.844
	c0.812,1.598,1.727,3.264,2.741,4.966c0.462,0.785,0.951,1.58,1.466,2.374c1.003,1.58,2.103,3.176,3.309,4.791
	c1.361,1.825,2.845,3.657,4.476,5.482c1.23,1.37,2.54,2.731,3.946,4.084c1.047,1.013,2.138,2.016,3.291,3.002
	c0.367,0.367,0.742,0.733,1.125,1.091c1.345,1.274,2.767,2.523,4.26,3.761c1.379,1.136,2.818,2.243,4.319,3.344
	c1.51,1.1,3.072,2.182,4.687,3.229c2.121,1.387,4.311,2.723,6.58,4.005c1.632,0.934,3.299,1.833,5,2.706
	C83.656,87.821,107.604,94.001,125.653,92.063z"/>
<path fill="#37B34A" d="M58.677,74.878l-9.041,19.445c1.545,1.161,3.107,2.269,4.695,3.35l9.347-20.091L58.677,74.878z"/>
<path fill="#37B34A" d="M52.097,70.874L41.842,88.066c-1.467-1.274-2.897-2.575-4.285-3.892l9.852-16.531
	C48.92,68.743,50.482,69.825,52.097,70.874z"/>
<path fill="#37B34A" d="M43.09,64.301L31.858,78.396c-1.328-1.432-2.592-2.872-3.805-4.329L38.831,60.54
	C40.175,61.813,41.597,63.062,43.09,64.301z"/>
<path fill="#37B34A" d="M34.415,56.446L22.93,67.294c-1.118-1.624-2.156-3.255-3.099-4.879l10.638-10.054
	C31.7,53.731,33.009,55.093,34.415,56.446z"/>
<path fill="#37B34A" d="M25.993,46.879l-9.295,10.238c-1.012-1.841-1.91-3.666-2.705-5.455l8.692-9.572
	C23.689,43.669,24.788,45.266,25.993,46.879z"/>
<path fill="#37B34A" d="M21.219,39.715l-9.81,5.228c-0.628-1.929-1.143-3.796-1.553-5.595l8.623-4.6
	C19.29,36.347,20.206,38.014,21.219,39.715z"/>
<path fill="#37B34A" d="M16.157,29.906L8.791,33.65c-0.306-2.208-0.47-4.25-0.523-6.092l5.681-2.898
	C14.577,26.222,15.302,27.985,16.157,29.906z"/>
<path fill="#8BC53F" d="M219.182,92.063c9.948,8.588,21.006,15.981,32.955,21.984c12.497-1.867,26.063-8.021,38.367-16.373
	c1.587-1.083,3.148-2.19,4.695-3.35c2.688-1.99,5.287-4.085,7.794-6.258c1.466-1.274,2.897-2.575,4.284-3.893
	c1.988-1.885,3.899-3.814,5.697-5.778c1.326-1.431,2.594-2.871,3.805-4.329c1.853-2.242,3.568-4.502,5.125-6.773
	c1.117-1.623,2.154-3.255,3.098-4.878c0.186-0.306,0.357-0.62,0.533-0.934c0.941-1.466,1.806-2.924,2.6-4.364
	c1.014-1.841,1.913-3.666,2.708-5.455c1.021-2.296,1.874-4.547,2.583-6.721c0.629-1.929,1.146-3.795,1.553-5.594
	c0.475-1.999,0.813-3.902,1.065-5.699c0.306-2.208,0.472-4.25,0.522-6.092c0.211-6.764-0.977-10.761-1.553-10.019
	c-1.16-0.532-2.183,2.33-4.129,7.122c-0.628,1.562-1.353,3.325-2.208,5.245c-0.688,1.527-1.446,3.151-2.319,4.844
	c-0.813,1.598-1.729,3.264-2.741,4.966c-0.462,0.785-0.951,1.58-1.466,2.374c-1.004,1.58-2.104,3.176-3.31,4.791
	c-1.36,1.825-2.847,3.657-4.478,5.482c-1.23,1.37-2.54,2.731-3.945,4.084c-1.048,1.013-2.139,2.016-3.29,3.002
	c-0.366,0.367-0.744,0.733-1.127,1.091c-1.343,1.274-2.769,2.523-4.258,3.761c-1.38,1.136-2.819,2.243-4.321,3.344
	c-1.51,1.1-3.07,2.182-4.688,3.229c-2.121,1.387-4.312,2.723-6.582,4.005c-1.631,0.934-3.297,1.833-5,2.706
	C261.18,87.821,237.229,94.001,219.182,92.063z"/>
<path fill="#37B34A" d="M281.152,77.584l9.351,20.091c1.588-1.083,3.147-2.19,4.696-3.35l-9.043-19.445L281.152,77.584z"/>
<path fill="#37B34A" d="M292.736,70.874l10.256,17.192c1.466-1.274,2.896-2.575,4.285-3.892l-9.854-16.53
	C295.913,68.743,294.352,69.825,292.736,70.874z"/>
<path fill="#37B34A" d="M301.744,64.301l11.23,14.095c1.325-1.432,2.594-2.872,3.805-4.329L306.002,60.54
	C304.659,61.813,303.236,63.062,301.744,64.301z"/>
<path fill="#37B34A" d="M310.419,56.446l11.485,10.849c1.117-1.624,2.154-3.255,3.098-4.879l-10.639-10.054
	C313.133,53.731,311.823,55.093,310.419,56.446z"/>
<path fill="#37B34A" d="M318.842,46.879l9.292,10.238c1.015-1.841,1.913-3.666,2.708-5.455l-8.691-9.573
	C321.145,43.669,320.045,45.266,318.842,46.879z"/>
<path fill="#37B34A" d="M323.614,39.715l9.811,5.228c0.63-1.929,1.146-3.796,1.554-5.595l-8.623-4.6
	C325.544,36.347,324.627,38.014,323.614,39.715z"/>
<path fill="#37B34A" d="M328.677,29.906l7.367,3.744c0.306-2.208,0.47-4.25,0.522-6.092l-5.684-2.898
	C330.257,26.222,329.533,27.985,328.677,29.906z"/>
<path fill="#641A2A" d="M301.486,258.268c0,0-13.03,1.969-19.256-28.482c1.033-50.349-0.805-111.083-4.701-132.795
	c-0.135-0.022,0.138,0.023,0,0c-7.666-51.24-51.727-90.56-105.104-90.56c-53.369,0-97.45,39.32-105.124,90.56
	c-0.128,0.023,0.127-0.022,0,0c-3.244,18.016-5.177,62.922-5.013,106.434c0,0-6.878,48.452-18.943,54.846
	c0,0,9.321,0.895,13.821-2.824c0,0,1.374,40.511,12.991,50.788c0,0-1.343-8.938,5.584-12.179c0,0,0.556,26.582,21.559,37.645
	c0,0-3.912-17.313,11.276-28.028c0,0-4.693,14.182,8.153,28.701c12.852,14.524,10.17,22.229,10.17,22.229
	s10.729-12.396,8.711-26.028c0,0,0.787,18.099,23.236,22.461c0,0-2.904-18.765,3.465-24.354c0,0,9.605,5.81,3.346,18.09
	c0,0,20.447-2.227,23.57-25.02c0,0,11.73,11.848,6.139,29.383c0,0,23.799-11.506,27.705-31.729c0,0,6.484,19.993,24.461,19.327
	c0,0-10.387-24.354,5.593-32.625c0,0,12.281,0.789,11.724,13.078c0,0,21.246-16.303,15.789-46.373
	c0.199-3.121,0.377-6.391,0.543-9.8C286.413,263.046,295.939,265.354,301.486,258.268z"/>
<path fill="#FFFFFF" d="M195.613,226.484c-4.836-0.006-8.768,11.355-8.778,16.191h17.538
	C204.373,237.842,200.459,226.477,195.613,226.484z"/>
<path fill="#FFFFFF" d="M137.873,226.479c-4.848,0.006-8.772,11.362-8.761,16.198h17.533
	C146.641,237.842,142.7,226.477,137.873,226.479z"/>
<path fill="#FFFFFF" d="M176.318,233.921c-4.844,0-8.775,3.921-8.792,8.757h17.546C185.074,237.848,181.15,233.911,176.318,233.921z
	"/>
<path fill="#8BC53F" d="M157.187,233.921c-4.855,0.007-8.771,3.921-8.779,8.757l17.53-0.006
	C165.938,237.842,162.007,233.911,157.187,233.921z"/>
<path fill="#641A2A" d="M345.311,95.477"/>
<g>
	<path fill="#FAF3E2" d="M256.789,112.641c0,46.067-37.321,83.398-83.393,83.398c-46.059,0-83.417-37.33-83.417-83.398
		c0-46.059,37.359-83.398,83.417-83.398C219.468,29.241,256.789,66.582,256.789,112.641z"/>
	<path fill="#8BC53F" d="M187.035,97.441c-6.07,1.65-12.373-1.937-14.027-8.014c-0.736-2.69-0.395-5.371,0.688-7.726
		c-2.514-0.031-5.053,0.152-7.589,0.845c-14.784,4.027-23.484,19.236-19.464,33.998c4.019,14.772,19.234,23.509,34.022,19.481
		c14.764-4.017,23.48-19.269,19.466-34.039c-1.122-4.098-3.183-7.677-5.792-10.704C192.941,94.199,190.4,96.523,187.035,97.441z"/>
	<path fill="#641A2A" d="M261.096,111.479c0-48.44-39.265-87.689-87.705-87.689c-48.425,0-87.718,39.25-87.718,87.689l0,0H261.096
		L261.096,111.479z"/>
</g>
</svg>
